<svg width="24" height="24" viewBox="0 0 24 24" fill="none" xmlns="http://www.w3.org/2000/svg">
<path fill-rule="evenodd" clip-rule="evenodd" d="M19 5.82219L5.82219 19L5 18.1778L18.1778 5L19 5.82219Z" fill="#1C1C1C"/>
<path fill-rule="evenodd" clip-rule="evenodd" d="M8.83989 17.3968C9.81758 17.786 10.8838 18 12 18C15.4525 18 18.4275 15.9528 19.7807 13.0044C20.0731 12.3674 20.0731 11.6326 19.7807 10.9956C19.3214 9.99489 18.6753 9.09796 17.887 8.34967L14.5491 11.6876C14.5615 11.79 14.5679 11.8943 14.5679 12.0001C14.5679 13.4203 13.4183 14.5716 12.0003 14.5716C11.8933 14.5716 11.7879 14.565 11.6844 14.5523L8.83989 17.3968ZM14.1808 10.6417L17.1202 7.70232C16.8033 7.46508 16.4696 7.24931 16.121 7.05716L13.3598 9.81834C13.6921 10.0265 13.9734 10.3086 14.1808 10.6417ZM9.81966 13.3584C10.027 13.6916 10.3083 13.9737 10.6406 14.1819L7.87943 16.9431C7.53082 16.7509 7.19702 16.5352 6.88017 16.2979L9.81966 13.3584ZM12.3159 9.44795C12.2125 9.43525 12.1071 9.42871 12.0003 9.42871C10.5822 9.42871 9.43262 10.58 9.43262 12.0001C9.43262 12.1059 9.43899 12.2101 9.45137 12.3125L6.11328 15.6506C5.32489 14.9023 4.67863 14.0052 4.21926 13.0044C3.92691 12.3674 3.92691 11.6326 4.21926 10.9956C5.57249 8.04722 8.54752 6 12 6C13.1163 6 14.1827 6.21403 15.1605 6.60336L12.3159 9.44795Z" fill="#1C1C1C"/>
</svg>
