<svg width="22" height="22" viewBox="0 0 22 22" fill="none" xmlns="http://www.w3.org/2000/svg">
<path d="M4.94457 15.582L5.65807 15.8132V15.8132L4.94457 15.582ZM5.60448 13.5451L4.89099 13.3139L4.89099 13.3139L5.60448 13.5451ZM6.2854 12.4115L6.82324 12.9342L6.82324 12.9342L6.2854 12.4115ZM12.8615 5.64517L12.3237 5.12245L12.3237 5.12245L12.8615 5.64517ZM16.3849 9.27037L16.9227 9.79309V9.79309L16.3849 9.27037ZM9.80873 16.0367L9.27089 15.5139L9.27089 15.5139L9.80873 16.0367ZM8.70697 16.7373L8.95029 17.4467H8.95029L8.70697 16.7373ZM6.72725 17.4163L6.97057 18.1257L6.97057 18.1257L6.72725 17.4163ZM9.44755 16.3835L8.98767 15.7911L8.98767 15.7911L9.44755 16.3835ZM9.17002 16.56L8.82883 15.8921L9.17002 16.56ZM17.2336 6.65295L16.5579 6.97838V6.97838L17.2336 6.65295ZM17.2336 8.26259L16.5579 7.93716V7.93716L17.2336 8.26259ZM13.841 4.77185L14.1817 5.44001L14.1817 5.44001L13.841 4.77185ZM15.4054 4.77185L15.0647 5.44001V5.44001L15.4054 4.77185ZM5.77677 13.0686L6.45223 13.3946L6.45224 13.3946L5.77677 13.0686ZM5.94828 12.7831L5.34344 12.3396L5.34344 12.3396L5.94828 12.7831ZM4.61629 17.2048L3.90764 17.4504L4.61629 17.2048ZM5.1501 17.754L4.89176 18.4581L4.89176 18.4581L5.1501 17.754ZM12.5185 6.02878C12.2299 5.73175 11.755 5.72498 11.458 6.01367C11.161 6.30236 11.1542 6.77718 11.4429 7.07422L12.5185 6.02878ZM14.9662 10.6994C15.2549 10.9965 15.7297 11.0032 16.0268 10.7145C16.3238 10.4258 16.3306 9.95102 16.0419 9.65398L14.9662 10.6994ZM11.0999 17.5834C10.6857 17.5834 10.3499 17.9192 10.3499 18.3334C10.3499 18.7476 10.6857 19.0834 11.0999 19.0834V17.5834ZM17.2657 19.0834C17.6799 19.0834 18.0157 18.7476 18.0157 18.3334C18.0157 17.9192 17.6799 17.5834 17.2657 17.5834V19.0834ZM5.65807 15.8132L6.31797 13.7762L4.89099 13.3139L4.23108 15.3509L5.65807 15.8132ZM6.82324 12.9342L13.3994 6.16789L12.3237 5.12245L5.74757 11.8887L6.82324 12.9342ZM15.847 8.74765L9.27089 15.5139L10.3466 16.5594L16.9227 9.79309L15.847 8.74765ZM8.46366 16.0278L6.48393 16.7068L6.97057 18.1257L8.95029 17.4467L8.46366 16.0278ZM9.27089 15.5139C9.08132 15.709 9.03472 15.7545 8.98767 15.7911L9.90742 16.976C10.0563 16.8604 10.1852 16.7254 10.3466 16.5594L9.27089 15.5139ZM8.95029 17.4467C9.16649 17.3726 9.34301 17.3138 9.51122 17.2279L8.82883 15.8921C8.77721 15.9185 8.71831 15.9405 8.46366 16.0278L8.95029 17.4467ZM8.98767 15.7911C8.9376 15.8299 8.88441 15.8637 8.82883 15.8921L9.51122 17.2279C9.65087 17.1566 9.78349 17.0722 9.90742 16.976L8.98767 15.7911ZM15.847 6.16789C16.3686 6.70457 16.4957 6.84926 16.5579 6.97838L17.9094 6.32751C17.7148 5.92357 17.3617 5.57409 16.9227 5.12245L15.847 6.16789ZM16.9227 9.79309C17.3617 9.34145 17.7148 8.99198 17.9094 8.58803L16.5579 7.93716C16.4957 8.06629 16.3686 8.21097 15.847 8.74765L16.9227 9.79309ZM16.5579 6.97838C16.7031 7.27985 16.7031 7.63569 16.5579 7.93716L17.9094 8.58803C18.2526 7.87525 18.2526 7.04029 17.9094 6.32751L16.5579 6.97838ZM13.3994 6.16789C13.9227 5.62942 14.0613 5.50141 14.1817 5.44001L13.5003 4.10369C13.1026 4.30645 12.7609 4.67261 12.3237 5.12245L13.3994 6.16789ZM16.9227 5.12245C16.4855 4.67261 16.1438 4.30645 15.7461 4.10369L15.0647 5.44001C15.1852 5.50141 15.3237 5.62941 15.847 6.16789L16.9227 5.12245ZM14.1817 5.44001C14.4605 5.29783 14.7859 5.29783 15.0647 5.44001L15.7461 4.10369C15.0392 3.74327 14.2072 3.74327 13.5003 4.10369L14.1817 5.44001ZM6.31797 13.7762C6.40252 13.5152 6.42501 13.451 6.45223 13.3946L5.1013 12.7427C5.01938 12.9124 4.96339 13.0904 4.89099 13.3139L6.31797 13.7762ZM5.74757 11.8887C5.58589 12.0551 5.45512 12.1873 5.34344 12.3396L6.55313 13.2266C6.58926 13.1773 6.63397 13.1289 6.82324 12.9342L5.74757 11.8887ZM6.45224 13.3946C6.48089 13.3352 6.5147 13.279 6.55313 13.2266L5.34344 12.3396C5.2506 12.4662 5.16957 12.6012 5.1013 12.7427L6.45224 13.3946ZM4.23108 15.3509C4.09213 15.7798 3.97158 16.1496 3.90341 16.4481C3.83773 16.7357 3.78447 17.095 3.90764 17.4504L5.32494 16.9592C5.34607 17.0202 5.31351 17.0108 5.36576 16.7821C5.41551 16.5642 5.51014 16.2698 5.65807 15.8132L4.23108 15.3509ZM6.48393 16.7068C6.03909 16.8594 5.75571 16.9558 5.54699 17.0062C5.32692 17.0594 5.33292 17.0222 5.40844 17.0499L4.89176 18.4581C5.25344 18.5908 5.61769 18.5323 5.8995 18.4642C6.19265 18.3933 6.55476 18.2683 6.97057 18.1257L6.48393 16.7068ZM3.90764 17.4504C4.06824 17.9138 4.42603 18.2873 4.89176 18.4581L5.40844 17.0499C5.37611 17.0381 5.34195 17.0083 5.32494 16.9592L3.90764 17.4504ZM11.4429 7.07422L14.9662 10.6994L16.0419 9.65398L12.5185 6.02878L11.4429 7.07422ZM11.0999 19.0834H17.2657V17.5834H11.0999V19.0834Z" fill="white"/>
</svg>
