<svg width="46" height="46" viewBox="0 0 46 46" fill="none" xmlns="http://www.w3.org/2000/svg">
<path d="M5.76072 15.3333C5.75 16.1242 5.75 17.0116 5.75 18.0167V27.9833C5.75 32.2771 5.75 34.4239 6.58562 36.0639C7.32065 37.5065 8.4935 38.6794 9.93607 39.4144C11.5761 40.25 13.7229 40.25 18.0167 40.25H27.9833C28.9884 40.25 29.8758 40.25 30.6667 40.2393M5.76072 15.3333C5.79579 12.7456 5.9456 11.1922 6.58562 9.93607C7.32065 8.4935 8.4935 7.32065 9.93607 6.58562C11.5761 5.75 13.7229 5.75 18.0167 5.75H27.9833C32.2771 5.75 34.4239 5.75 36.0639 6.58562C37.5065 7.32065 38.6794 8.4935 39.4144 9.93607C40.25 11.5761 40.25 13.7229 40.25 18.0167V27.9833C40.25 30.8848 40.25 32.806 39.9921 34.2529M5.76072 15.3333L15.3441 24.9167M30.6667 40.2393C33.2544 40.2042 34.8078 40.0544 36.0639 39.4144C37.5065 38.6794 38.6794 37.5065 39.4144 36.0639C39.6853 35.5322 39.8684 34.9471 39.9921 34.2529M30.6667 40.2393L15.3441 24.9167M15.3441 24.9167L20.7373 19.5235C21.5293 18.7314 21.9253 18.3354 22.382 18.187C22.7837 18.0565 23.2163 18.0565 23.618 18.187C24.0747 18.3354 24.4707 18.7314 25.2627 19.5235L39.9921 34.2529M32.6025 13.4167H32.5642" stroke="#1C1C1C" stroke-width="2" stroke-linecap="round"/>
</svg>
