<svg width="24" height="24" viewBox="0 0 24 24" fill="none" xmlns="http://www.w3.org/2000/svg">
<path d="M9 21V13.7652C9 13.1944 9.44772 12.7317 10 12.7317H14C14.5523 12.7317 15 13.1944 15 13.7652V21M4 18.9329V11.1204C4 9.88039 4.53851 8.7059 5.46705 7.9207L10.7335 3.46725C11.4703 2.84425 12.5297 2.84425 13.2665 3.46725L18.533 7.9207C19.4615 8.7059 20 9.88039 20 11.1204V18.9329C20 20.0745 19.1046 21 18 21H16H8H6C4.89543 21 4 20.0745 4 18.9329Z" stroke="#1C1C1C" stroke-width="1.5" stroke-linecap="round"/>
</svg>
