<svg width="24" height="24" viewBox="0 0 24 24" fill="none" xmlns="http://www.w3.org/2000/svg">
<path fill-rule="evenodd" clip-rule="evenodd" d="M4.21926 10.9956C3.92691 11.6326 3.92691 12.3674 4.21926 13.0044C5.57249 15.9528 8.54752 18 12 18C15.4525 18 18.4275 15.9528 19.7807 13.0044C20.0731 12.3674 20.0731 11.6326 19.7807 10.9956C18.4275 8.04723 15.4525 6 12 6C8.54752 6 5.57249 8.04722 4.21926 10.9956ZM12.0003 14.5716C13.4183 14.5716 14.5679 13.4203 14.5679 12.0001C14.5679 10.58 13.4183 9.42871 12.0003 9.42871C10.5822 9.42871 9.43262 10.58 9.43262 12.0001C9.43262 13.4203 10.5822 14.5716 12.0003 14.5716Z" fill="#1C1C1C"/>
</svg>
