<svg width="18" height="18" viewBox="0 0 18 18" fill="none" xmlns="http://www.w3.org/2000/svg">
<path d="M8.71857 8.7187H9.28107M8.71857 9.2812H9.28107M3.46857 8.7187H4.03107M3.46857 9.2812H4.03107M13.9686 8.7187H14.5311M13.9686 9.2812H14.5311M9.75 9C9.75 9.41421 9.41421 9.75 9 9.75C8.58579 9.75 8.25 9.41421 8.25 9C8.25 8.58579 8.58579 8.25 9 8.25C9.41421 8.25 9.75 8.58579 9.75 9ZM4.5 9C4.5 9.41421 4.16421 9.75 3.75 9.75C3.33579 9.75 3 9.41421 3 9C3 8.58579 3.33579 8.25 3.75 8.25C4.16421 8.25 4.5 8.58579 4.5 9ZM15 9C15 9.41421 14.6642 9.75 14.25 9.75C13.8358 9.75 13.5 9.41421 13.5 9C13.5 8.58579 13.8358 8.25 14.25 8.25C14.6642 8.25 15 8.58579 15 9Z" stroke="#1C1C1C" stroke-linecap="round"/>
</svg>
