<svg width="18" height="18" viewBox="0 0 18 18" fill="none" xmlns="http://www.w3.org/2000/svg">
<path d="M2.25419 6C2.25 6.30946 2.25 6.65671 2.25 7.05V10.95C2.25 12.6302 2.25 13.4702 2.57698 14.112C2.8646 14.6765 3.32354 15.1354 3.88803 15.423C4.52976 15.75 5.36984 15.75 7.05 15.75H10.95C11.3433 15.75 11.6905 15.75 12 15.7458M2.25419 6C2.26792 4.98742 2.32654 4.37955 2.57698 3.88803C2.8646 3.32354 3.32354 2.8646 3.88803 2.57698C4.52976 2.25 5.36984 2.25 7.05 2.25H10.95C12.6302 2.25 13.4702 2.25 14.112 2.57698C14.6765 2.8646 15.1354 3.32354 15.423 3.88803C15.75 4.52976 15.75 5.36984 15.75 7.05V10.95C15.75 12.0854 15.75 12.8371 15.6491 13.4033M2.25419 6L6.00419 9.75M12 15.7458C13.0126 15.7321 13.6205 15.6735 14.112 15.423C14.6765 15.1354 15.1354 14.6765 15.423 14.112C15.529 13.9039 15.6007 13.675 15.6491 13.4033M12 15.7458L6.00419 9.75M6.00419 9.75L6.73726 9.01694C7.52929 8.2249 7.92531 7.82888 8.38197 7.68051C8.78365 7.54999 9.21635 7.54999 9.61803 7.68051C10.0747 7.82888 10.4707 8.2249 11.2627 9.01694L15.6491 13.4033M12.7575 5.25H12.7425" stroke="#1C1C1C" stroke-linecap="round"/>
</svg>
