<svg width="24" height="24" viewBox="0 0 24 24" fill="none" xmlns="http://www.w3.org/2000/svg">
<path d="M5.25 10.2857C6.49264 10.2857 7.5 9.32632 7.5 8.14286C7.5 6.95939 6.49264 6 5.25 6C4.00736 6 3 6.95939 3 8.14286C3 9.32632 4.00736 10.2857 5.25 10.2857ZM5.25 10.2857L8.61774 11.9447M5.25 13.7143C4.00736 13.7143 3 14.6737 3 15.8571C3 17.0406 4.00736 18 5.25 18C6.49264 18 7.5 17.0406 7.5 15.8571C7.5 14.6737 6.49264 13.7143 5.25 13.7143ZM5.25 13.7143L8.61774 11.9447M8.61774 11.9447L18.3 6.85714M8.61774 11.9447L12.9 14.0542M21 17.1429L18.75 17.1429M16.05 17.1429H13.8M11.1 17.1429H10.2" stroke="#1C1C1C" stroke-width="1.5" stroke-linecap="round"/>
</svg>
