<svg width="34" height="34" viewBox="0 0 34 34" fill="none" xmlns="http://www.w3.org/2000/svg">
<path d="M12.0056 8.09958L11.1112 7.65236L11.1112 7.65238L12.0056 8.09958ZM12.1083 7.89427L11.2139 7.44706L11.2139 7.44706L12.1083 7.89427ZM21.8914 7.89427L20.997 8.34149L20.997 8.34149L21.8914 7.89427ZM21.994 8.09958L22.8885 7.65237L22.8885 7.65236L21.994 8.09958ZM22.0986 8.18424L21.9711 9.17608L21.9711 9.17608L22.0986 8.18424ZM22.0102 8.12956L21.1801 8.68715L21.1801 8.68719L22.0102 8.12956ZM20.0423 5.8044L20.3684 4.85905L20.3684 4.85905L20.0423 5.8044ZM20.9833 6.38599L21.6831 5.67157V5.67157L20.9833 6.38599ZM13.0163 6.38599L12.3166 5.67157L12.3166 5.67157L13.0163 6.38599ZM13.9574 5.8044L14.2834 6.74974H14.2834L13.9574 5.8044ZM11.901 8.18424L11.7735 7.1924L11.7735 7.1924L11.901 8.18424ZM11.9895 8.12956L11.1594 7.57191L11.1594 7.57194L11.9895 8.12956ZM8.41677 27.7844L8.87076 26.8934H8.87076L8.41677 27.7844ZM6.21551 25.5831L7.10651 25.1292H7.10651L6.21551 25.5831ZM27.7842 25.5831L26.8932 25.1292L26.8932 25.1292L27.7842 25.5831ZM25.5829 27.7844L25.1289 26.8934L25.1289 26.8934L25.5829 27.7844ZM28.2505 12.3135L29.2341 12.1331L29.2341 12.1331L28.2505 12.3135ZM24.2049 8.26792L24.0245 9.25151L24.2049 8.26792ZM5.74916 12.3135L6.73275 12.4939L5.74916 12.3135ZM9.79477 8.26792L9.61435 7.28433L9.79477 8.26792ZM27.3332 14.3858V20.2742H29.3332V14.3858H27.3332ZM20.2739 27.3334H13.7258V29.3334H20.2739V27.3334ZM6.6665 20.2742V14.3858H4.6665V20.2742H6.6665ZM12.9001 8.54679L13.0027 8.34149L11.2139 7.44706L11.1112 7.65236L12.9001 8.54679ZM15.7125 6.66675H18.2872V4.66675H15.7125V6.66675ZM20.997 8.34149L21.0996 8.54679L22.8885 7.65236L22.7858 7.44706L20.997 8.34149ZM22.1327 7.18527C22.1304 7.18527 22.1289 7.18527 22.1276 7.18527C22.1264 7.18526 22.1259 7.18526 22.1259 7.18526C22.1259 7.18526 22.1269 7.18527 22.1285 7.18529C22.1301 7.1853 22.1327 7.18534 22.1362 7.18543C22.1498 7.18576 22.1832 7.18688 22.2261 7.1924L21.9711 9.17608C22.0221 9.18263 22.0638 9.18426 22.0881 9.18485C22.1082 9.18533 22.1286 9.18527 22.1327 9.18527V7.18527ZM21.0996 8.54678C21.1014 8.55041 21.1105 8.56869 21.1199 8.58647C21.1313 8.60795 21.1514 8.64451 21.1801 8.68715L22.8403 7.57197C22.8644 7.60792 22.8804 7.63725 22.8867 7.64929C22.8884 7.65236 22.8896 7.65475 22.8903 7.65616C22.8911 7.65756 22.8915 7.65841 22.8915 7.65842C22.8915 7.65843 22.8913 7.65803 22.8907 7.65691C22.8902 7.65575 22.8895 7.65442 22.8885 7.65237L21.0996 8.54678ZM22.2262 7.1924C22.476 7.22452 22.6998 7.36286 22.8403 7.57193L21.1801 8.68719C21.361 8.95651 21.6493 9.1347 21.9711 9.17608L22.2262 7.1924ZM18.2872 6.66675C19.2637 6.66675 19.5134 6.6798 19.7162 6.74974L20.3684 4.85905C19.773 4.6537 19.1187 4.66675 18.2872 4.66675V6.66675ZM22.7858 7.44706C22.4139 6.70331 22.133 6.11224 21.6831 5.67157L20.2836 7.10041C20.4369 7.25051 20.5602 7.46805 20.997 8.34149L22.7858 7.44706ZM19.7162 6.74974C19.929 6.82314 20.1228 6.94291 20.2836 7.10041L21.6831 5.67157C21.3105 5.30664 20.8614 5.02911 20.3684 4.85905L19.7162 6.74974ZM13.0027 8.34149C13.4394 7.46805 13.5628 7.25051 13.7161 7.10041L12.3166 5.67157C11.8667 6.11224 11.5857 6.70331 11.2139 7.44706L13.0027 8.34149ZM15.7125 4.66675C14.881 4.66675 14.2267 4.6537 13.6313 4.85905L14.2834 6.74974C14.4862 6.6798 14.736 6.66675 15.7125 6.66675V4.66675ZM13.7161 7.10041C13.8769 6.94291 14.0707 6.82314 14.2834 6.74974L13.6313 4.85905C13.1383 5.02911 12.6892 5.30664 12.3166 5.67157L13.7161 7.10041ZM11.867 9.18527C11.8711 9.18527 11.8915 9.18533 11.9116 9.18485C11.9359 9.18426 11.9776 9.18263 12.0285 9.17607L11.7735 7.1924C11.8165 7.18688 11.8498 7.18576 11.8635 7.18543C11.8669 7.18534 11.8696 7.1853 11.8712 7.18529C11.8728 7.18527 11.8738 7.18526 11.8738 7.18526C11.8738 7.18526 11.8733 7.18526 11.8721 7.18527C11.8708 7.18527 11.8693 7.18527 11.867 7.18527V9.18527ZM11.1112 7.65238C11.1102 7.65443 11.1095 7.65576 11.1089 7.65691C11.1084 7.65803 11.1082 7.65843 11.1082 7.65842C11.1082 7.65841 11.1086 7.65756 11.1093 7.65615C11.1101 7.65474 11.1113 7.65236 11.1129 7.64928C11.1193 7.63723 11.1353 7.60788 11.1594 7.57191L12.8196 8.6872C12.8482 8.64455 12.8684 8.60797 12.8798 8.58648C12.8892 8.56869 12.8983 8.55041 12.9001 8.54678L11.1112 7.65238ZM12.0285 9.17608C12.3504 9.1347 12.6387 8.95651 12.8196 8.68718L11.1594 7.57194C11.2999 7.36286 11.5237 7.22452 11.7735 7.1924L12.0285 9.17608ZM13.7258 27.3334C12.2988 27.3334 11.2886 27.3326 10.4989 27.2681C9.72078 27.2045 9.24504 27.0841 8.87076 26.8934L7.96278 28.6754C8.66599 29.0337 9.43424 29.1878 10.336 29.2615C11.2261 29.3342 12.3318 29.3334 13.7258 29.3334V27.3334ZM4.6665 20.2742C4.6665 21.6682 4.66573 22.7738 4.73845 23.6639C4.81213 24.5657 4.9662 25.3339 5.3245 26.0371L7.10651 25.1292C6.91581 24.7549 6.79538 24.2791 6.73181 23.501C6.66728 22.7113 6.6665 21.7012 6.6665 20.2742H4.6665ZM8.87076 26.8934C8.11115 26.5064 7.49356 25.8888 7.10651 25.1292L5.3245 26.0371C5.90329 27.1731 6.82684 28.0966 7.96278 28.6754L8.87076 26.8934ZM27.3332 20.2742C27.3332 21.7012 27.3324 22.7113 27.2679 23.501C27.2043 24.2791 27.0839 24.7549 26.8932 25.1292L28.6752 26.0371C29.0335 25.3339 29.1875 24.5657 29.2612 23.6639C29.334 22.7738 29.3332 21.6682 29.3332 20.2742H27.3332ZM20.2739 29.3334C21.6679 29.3334 22.7736 29.3342 23.6637 29.2615C24.5654 29.1878 25.3337 29.0337 26.0369 28.6754L25.1289 26.8934C24.7546 27.0841 24.2789 27.2045 23.5008 27.2681C22.711 27.3326 21.7009 27.3334 20.2739 27.3334V29.3334ZM26.8932 25.1292C26.5061 25.8888 25.8885 26.5064 25.1289 26.8934L26.0369 28.6754C27.1728 28.0966 28.0964 27.1731 28.6752 26.0371L26.8932 25.1292ZM29.3332 14.3858C29.3332 13.3489 29.3373 12.6958 29.2341 12.1331L27.2669 12.4939C27.329 12.8326 27.3332 13.2605 27.3332 14.3858H29.3332ZM22.1327 9.18527C23.258 9.18527 23.6859 9.1894 24.0245 9.25151L24.3853 7.28433C23.8227 7.18113 23.1695 7.18527 22.1327 7.18527V9.18527ZM29.2341 12.1331C28.7817 9.6667 26.8517 7.73674 24.3853 7.28433L24.0245 9.25151C25.6738 9.55405 26.9644 10.8446 27.2669 12.4939L29.2341 12.1331ZM6.6665 14.3858C6.6665 13.2605 6.67064 12.8326 6.73275 12.4939L4.76557 12.1331C4.66237 12.6958 4.6665 13.3489 4.6665 14.3858H6.6665ZM11.867 7.18527C10.8302 7.18527 10.177 7.18113 9.61435 7.28433L9.97519 9.25151C10.3138 9.1894 10.7417 9.18527 11.867 9.18527V7.18527ZM6.73275 12.4939C7.03528 10.8446 8.32587 9.55405 9.97519 9.25151L9.61435 7.28433C7.14794 7.73674 5.21798 9.66671 4.76557 12.1331L6.73275 12.4939ZM21.0369 18.2593C21.0369 20.4889 19.2294 22.2964 16.9998 22.2964V24.2964C20.334 24.2964 23.0369 21.5935 23.0369 18.2593H21.0369ZM16.9998 22.2964C14.7702 22.2964 12.9628 20.4889 12.9628 18.2593H10.9628C10.9628 21.5935 13.6657 24.2964 16.9998 24.2964V22.2964ZM12.9628 18.2593C12.9628 16.0297 14.7702 14.2223 16.9998 14.2223V12.2223C13.6657 12.2223 10.9628 14.9252 10.9628 18.2593H12.9628ZM16.9998 14.2223C19.2294 14.2223 21.0369 16.0297 21.0369 18.2593H23.0369C23.0369 14.9252 20.334 12.2223 16.9998 12.2223V14.2223Z" fill="#1C1C1C"/>
</svg>
