<svg width="46" height="46" viewBox="0 0 46 46" fill="none" xmlns="http://www.w3.org/2000/svg">
<path d="M9.93607 39.4144L10.3901 38.5234H10.3901L9.93607 39.4144ZM6.58562 36.0639L5.69461 36.5179H5.69461L6.58562 36.0639ZM36.0639 6.58562L36.5179 5.69461V5.69461L36.0639 6.58562ZM39.4144 9.93607L38.5234 10.3901V10.3901L39.4144 9.93607ZM9.93607 6.58562L10.3901 7.47662L9.93607 6.58562ZM6.58562 9.93607L7.47662 10.3901L6.58562 9.93607ZM39.25 21.0833C39.25 21.6356 39.6977 22.0833 40.25 22.0833C40.8023 22.0833 41.25 21.6356 41.25 21.0833H39.25ZM21.0833 41.25C21.6356 41.25 22.0833 40.8023 22.0833 40.25C22.0833 39.6977 21.6356 39.25 21.0833 39.25V41.25ZM15.3333 14.3333C14.781 14.3333 14.3333 14.781 14.3333 15.3333C14.3333 15.8856 14.781 16.3333 15.3333 16.3333V14.3333ZM30.6667 16.3333C31.219 16.3333 31.6667 15.8856 31.6667 15.3333C31.6667 14.781 31.219 14.3333 30.6667 14.3333V16.3333ZM15.3333 22C14.781 22 14.3333 22.4477 14.3333 23C14.3333 23.5523 14.781 24 15.3333 24V22ZM30.6667 24C31.219 24 31.6667 23.5523 31.6667 23C31.6667 22.4477 31.219 22 30.6667 22V24ZM15.3333 29.6667C14.781 29.6667 14.3333 30.1144 14.3333 30.6667C14.3333 31.219 14.781 31.6667 15.3333 31.6667V29.6667ZM23 31.6667C23.5523 31.6667 24 31.219 24 30.6667C24 30.1144 23.5523 29.6667 23 29.6667V31.6667ZM27.3187 41.2018L28.2674 41.518L27.3187 41.2018ZM28.2057 38.5407L27.257 38.2245L28.2057 38.5407ZM29.121 37.0598L29.8281 37.7669H29.8281L29.121 37.0598ZM37.9603 28.2204L37.2532 27.5133L37.2532 27.5133L37.9603 28.2204ZM42.6962 32.9563L43.4033 33.6634L42.6962 32.9563ZM33.8569 41.7957L33.1498 41.0886H33.1497L33.8569 41.7957ZM32.3759 42.711L32.6922 43.6597H32.6922L32.3759 42.711ZM29.7149 43.598L30.0311 44.5467H30.0311L29.7149 43.598ZM33.3714 42.2488L33.9736 43.0472L33.3714 42.2488ZM32.9983 42.4794L32.5536 41.5837H32.5536L32.9983 42.4794ZM42.6962 28.2204L41.9891 28.9276V28.9276L42.6962 28.2204ZM43.8371 29.537L44.7331 29.093L43.8371 29.537ZM43.8371 31.6398L44.7331 32.0838V32.0838L43.8371 31.6398ZM39.2769 27.0796L39.7209 27.9756L39.2769 27.0796ZM41.3797 27.0796L40.9357 27.9756L41.3797 27.0796ZM28.4373 37.9183L29.333 38.363L28.4373 37.9183ZM28.6678 37.5453L27.8695 36.943V36.943L28.6678 37.5453ZM26.8774 43.3217L27.8193 42.9859L26.8774 43.3217ZM27.5949 44.0393L27.2591 44.9812L27.5949 44.0393ZM18.0167 6.75H27.9833V4.75H18.0167V6.75ZM6.75 27.9833V18.0167H4.75V27.9833H6.75ZM18.0167 39.25C15.8533 39.25 14.2909 39.2492 13.0626 39.1489C11.8461 39.0495 11.0456 38.8574 10.3901 38.5234L9.48208 40.3054C10.4665 40.807 11.5595 41.0327 12.8998 41.1422C14.2284 41.2508 15.8863 41.25 18.0167 41.25V39.25ZM4.75 27.9833C4.75 30.1137 4.74922 31.7716 4.85777 33.1002C4.96728 34.4405 5.193 35.5335 5.69461 36.5179L7.47662 35.6099C7.14262 34.9544 6.95053 34.1539 6.85113 32.9374C6.75078 31.7091 6.75 30.1467 6.75 27.9833H4.75ZM10.3901 38.5234C9.13565 37.8842 8.11578 36.8643 7.47662 35.6099L5.69461 36.5179C6.52551 38.1487 7.85134 39.4745 9.48208 40.3054L10.3901 38.5234ZM27.9833 6.75C30.1467 6.75 31.7091 6.75078 32.9374 6.85113C34.1539 6.95053 34.9544 7.14262 35.6099 7.47662L36.5179 5.69461C35.5335 5.193 34.4405 4.96728 33.1002 4.85777C31.7716 4.74922 30.1137 4.75 27.9833 4.75V6.75ZM41.25 18.0167C41.25 15.8863 41.2508 14.2284 41.1422 12.8998C41.0327 11.5595 40.807 10.4665 40.3054 9.48208L38.5234 10.3901C38.8574 11.0456 39.0495 11.8461 39.1489 13.0626C39.2492 14.2909 39.25 15.8533 39.25 18.0167H41.25ZM35.6099 7.47662C36.8643 8.11578 37.8842 9.13565 38.5234 10.3901L40.3054 9.48208C39.4745 7.85134 38.1487 6.52551 36.5179 5.69461L35.6099 7.47662ZM18.0167 4.75C15.8863 4.75 14.2284 4.74922 12.8998 4.85777C11.5595 4.96728 10.4665 5.193 9.48208 5.69461L10.3901 7.47662C11.0456 7.14262 11.8461 6.95053 13.0626 6.85113C14.2909 6.75078 15.8533 6.75 18.0167 6.75V4.75ZM6.75 18.0167C6.75 15.8533 6.75078 14.2909 6.85113 13.0626C6.95053 11.8461 7.14262 11.0456 7.47662 10.3901L5.69461 9.48208C5.193 10.4665 4.96728 11.5595 4.85777 12.8998C4.74922 14.2284 4.75 15.8863 4.75 18.0167H6.75ZM9.48208 5.69461C7.85134 6.52551 6.52551 7.85134 5.69461 9.48208L7.47662 10.3901C8.11578 9.13565 9.13565 8.11578 10.3901 7.47662L9.48208 5.69461ZM39.25 18.0167V21.0833H41.25V18.0167H39.25ZM18.0167 41.25H21.0833V39.25H18.0167V41.25ZM15.3333 16.3333H30.6667V14.3333H15.3333V16.3333ZM15.3333 24H30.6667V22H15.3333V24ZM15.3333 31.6667H23V29.6667H15.3333V31.6667ZM28.2674 41.518L29.1544 38.857L27.257 38.2245L26.37 40.8856L28.2674 41.518ZM29.8281 37.7669L38.6674 28.9275L37.2532 27.5133L28.4139 36.3527L29.8281 37.7669ZM41.9891 32.2492L33.1498 41.0886L34.564 42.5028L43.4033 33.6634L41.9891 32.2492ZM32.0597 41.7623L29.3986 42.6493L30.0311 44.5467L32.6922 43.6597L32.0597 41.7623ZM33.1497 41.0886C32.895 41.3433 32.8325 41.4027 32.7691 41.4505L33.9736 43.0472C34.1736 42.8963 34.347 42.7198 34.564 42.5028L33.1497 41.0886ZM32.6922 43.6597C32.9833 43.5626 33.2186 43.4865 33.443 43.3751L32.5536 41.5837C32.4826 41.619 32.4015 41.6484 32.0597 41.7623L32.6922 43.6597ZM32.7691 41.4505C32.7016 41.5015 32.6294 41.5461 32.5536 41.5837L33.443 43.3751C33.6297 43.2824 33.8073 43.1726 33.9736 43.0472L32.7691 41.4505ZM41.9891 28.9276C42.6918 29.6302 42.8598 29.8169 42.9411 29.981L44.7331 29.093C44.4693 28.5607 43.9918 28.1018 43.4033 27.5133L41.9891 28.9276ZM43.4033 33.6634C43.9918 33.075 44.4693 32.6161 44.7331 32.0838L42.9411 31.1958C42.8598 31.3599 42.6918 31.5466 41.9891 32.2492L43.4033 33.6634ZM42.9411 29.981C43.1307 30.3637 43.1307 30.8131 42.9411 31.1958L44.7331 32.0838C45.2001 31.1415 45.2001 30.0352 44.7331 29.093L42.9411 29.981ZM38.6674 28.9275C39.3701 28.2249 39.5568 28.0569 39.7209 27.9756L38.8329 26.1835C38.3005 26.4473 37.8417 26.9249 37.2532 27.5133L38.6674 28.9275ZM43.4033 27.5133C42.8149 26.9249 42.356 26.4473 41.8237 26.1835L40.9357 27.9756C41.0997 28.0569 41.2865 28.2249 41.9891 28.9276L43.4033 27.5133ZM39.7209 27.9756C40.1036 27.7859 40.5529 27.7859 40.9357 27.9756L41.8237 26.1835C40.8814 25.7166 39.7751 25.7166 38.8329 26.1835L39.7209 27.9756ZM29.1544 38.857C29.2683 38.5152 29.2977 38.4341 29.333 38.363L27.5416 37.4736C27.4302 37.698 27.354 37.9334 27.257 38.2245L29.1544 38.857ZM28.4139 36.3527C28.1969 36.5697 28.0204 36.743 27.8695 36.943L29.4661 38.1475C29.5139 38.0842 29.5733 38.0217 29.8281 37.7669L28.4139 36.3527ZM29.333 38.363C29.3706 38.2872 29.4152 38.2151 29.4661 38.1475L27.8695 36.943C27.744 37.1094 27.6343 37.287 27.5416 37.4736L29.333 38.363ZM26.37 40.8856C26.1835 41.4451 26.0207 41.9303 25.9285 42.3226C25.8398 42.7001 25.7655 43.1808 25.9355 43.6576L27.8193 42.9859C27.8522 43.078 27.8057 43.0772 27.8755 42.7801C27.9418 42.4978 28.0682 42.1154 28.2674 41.518L26.37 40.8856ZM29.3986 42.6493C28.8013 42.8484 28.4189 42.9748 28.1366 43.0412C27.8395 43.111 27.8387 43.0645 27.9308 43.0973L27.2591 44.9812C27.7359 45.1512 28.2166 45.0768 28.5941 44.9881C28.9864 44.896 29.4716 44.7332 30.0311 44.5467L29.3986 42.6493ZM25.9355 43.6576C26.1557 44.2751 26.6416 44.761 27.2591 44.9812L27.9308 43.0973C27.8788 43.0788 27.8379 43.0379 27.8193 42.9859L25.9355 43.6576Z" fill="#1C1C1C"/>
</svg>
