<svg width="112" height="112" viewBox="0 0 112 112" fill="none" xmlns="http://www.w3.org/2000/svg">
<circle cx="56" cy="56" r="56" fill="#F0F0F0"/>
<path d="M45.7761 68.846L46.23 67.955L45.7761 68.846ZM43.154 66.2239L44.045 65.77L43.154 66.2239ZM68.846 66.2239L67.955 65.77L68.846 66.2239ZM66.2239 68.846L65.77 67.955L66.2239 68.846ZM66.2239 43.154L65.77 44.045L66.2239 43.154ZM68.846 45.7761L67.955 46.23L68.846 45.7761ZM45.7761 43.154L46.23 44.045L45.7761 43.154ZM43.154 45.7761L44.045 46.23L43.154 45.7761ZM51.8 66C52.3523 66 52.8 65.5523 52.8 65C52.8 64.4477 52.3523 64 51.8 64V66ZM48.638 64.673L49.092 63.782H49.092L48.638 64.673ZM48 60.2C48 59.6477 47.5523 59.2 47 59.2C46.4477 59.2 46 59.6477 46 60.2H48ZM47.327 63.362L46.436 63.816L47.327 63.362ZM66 60.2C66 59.6477 65.5523 59.2 65 59.2C64.4477 59.2 64 59.6477 64 60.2H66ZM64.673 63.362L63.782 62.908L64.673 63.362ZM60.2 64C59.6477 64 59.2 64.4477 59.2 65C59.2 65.5523 59.6477 66 60.2 66V64ZM63.362 64.673L62.908 63.782L63.362 64.673ZM60.2 46C59.6477 46 59.2 46.4477 59.2 47C59.2 47.5523 59.6477 48 60.2 48V46ZM63.362 47.327L63.816 46.436L63.362 47.327ZM64 51.8C64 52.3523 64.4477 52.8 65 52.8C65.5523 52.8 66 52.3523 66 51.8H64ZM64.673 48.638L63.782 49.092V49.092L64.673 48.638ZM51.8 48C52.3523 48 52.8 47.5523 52.8 47C52.8 46.4477 52.3523 46 51.8 46V48ZM48.638 47.327L49.092 48.218L48.638 47.327ZM46 51.8C46 52.3523 46.4477 52.8 47 52.8C47.5523 52.8 48 52.3523 48 51.8H46ZM47.327 48.638L48.218 49.092L47.327 48.638ZM58.6735 55.1C58.6735 56.517 57.4957 57.7 56 57.7V59.7C58.5619 59.7 60.6735 57.6595 60.6735 55.1H58.6735ZM56 57.7C54.5043 57.7 53.3265 56.517 53.3265 55.1H51.3265C51.3265 57.6595 53.4381 59.7 56 59.7V57.7ZM53.3265 55.1C53.3265 53.683 54.5043 52.5 56 52.5V50.5C53.4381 50.5 51.3265 52.5405 51.3265 55.1H53.3265ZM56 52.5C57.4957 52.5 58.6735 53.683 58.6735 55.1H60.6735C60.6735 52.5405 58.5619 50.5 56 50.5V52.5ZM50.9792 63.7028C51.4495 61.4325 53.5079 59.7 56 59.7V57.7C52.5681 57.7 49.6851 60.0901 49.0208 63.2972L50.9792 63.7028ZM56 59.7C58.4921 59.7 60.5505 61.4325 61.0208 63.7028L62.9792 63.2972C62.3149 60.0901 59.4319 57.7 56 57.7V59.7ZM52.1 43.5H59.9V41.5H52.1V43.5ZM68.5 52.1V59.9H70.5V52.1H68.5ZM59.9 68.5H52.1V70.5H59.9V68.5ZM43.5 59.9V52.1H41.5V59.9H43.5ZM52.1 68.5C50.4033 68.5 49.191 68.4992 48.2406 68.4216C47.302 68.3449 46.7073 68.1982 46.23 67.955L45.3221 69.737C46.1283 70.1478 47.0154 70.3281 48.0778 70.4149C49.1285 70.5008 50.4363 70.5 52.1 70.5V68.5ZM41.5 59.9C41.5 61.5637 41.4992 62.8715 41.5851 63.9222C41.6719 64.9846 41.8522 65.8717 42.263 66.6779L44.045 65.77C43.8018 65.2927 43.6551 64.698 43.5784 63.7594C43.5008 62.809 43.5 61.5967 43.5 59.9H41.5ZM46.23 67.955C45.2892 67.4757 44.5243 66.7108 44.045 65.77L42.263 66.6779C42.9341 67.9951 44.0049 69.0659 45.3221 69.737L46.23 67.955ZM68.5 59.9C68.5 61.5967 68.4992 62.809 68.4216 63.7594C68.3449 64.698 68.1982 65.2927 67.955 65.77L69.737 66.6779C70.1478 65.8717 70.3281 64.9846 70.4149 63.9222C70.5008 62.8715 70.5 61.5637 70.5 59.9H68.5ZM59.9 70.5C61.5637 70.5 62.8715 70.5008 63.9222 70.4149C64.9846 70.3281 65.8717 70.1478 66.6779 69.737L65.77 67.955C65.2927 68.1982 64.698 68.3449 63.7594 68.4216C62.809 68.4992 61.5967 68.5 59.9 68.5V70.5ZM67.955 65.77C67.4757 66.7108 66.7108 67.4757 65.77 67.955L66.6779 69.737C67.9951 69.0659 69.0659 67.9951 69.737 66.6779L67.955 65.77ZM59.9 43.5C61.5967 43.5 62.809 43.5008 63.7594 43.5784C64.698 43.6551 65.2927 43.8018 65.77 44.045L66.6779 42.263C65.8717 41.8522 64.9846 41.6719 63.9222 41.5851C62.8715 41.4992 61.5637 41.5 59.9 41.5V43.5ZM70.5 52.1C70.5 50.4363 70.5008 49.1285 70.4149 48.0778C70.3281 47.0154 70.1478 46.1283 69.737 45.3221L67.955 46.23C68.1982 46.7073 68.3449 47.302 68.4216 48.2406C68.4992 49.191 68.5 50.4033 68.5 52.1H70.5ZM65.77 44.045C66.7108 44.5243 67.4757 45.2892 67.955 46.23L69.737 45.3221C69.0659 44.0049 67.9951 42.9341 66.6779 42.263L65.77 44.045ZM52.1 41.5C50.4363 41.5 49.1285 41.4992 48.0778 41.5851C47.0154 41.6719 46.1283 41.8522 45.3221 42.263L46.23 44.045C46.7073 43.8018 47.302 43.6551 48.2406 43.5784C49.191 43.5008 50.4033 43.5 52.1 43.5V41.5ZM43.5 52.1C43.5 50.4033 43.5008 49.191 43.5784 48.2406C43.6551 47.302 43.8018 46.7073 44.045 46.23L42.263 45.3221C41.8522 46.1283 41.6719 47.0154 41.5851 48.0778C41.4992 49.1285 41.5 50.4363 41.5 52.1H43.5ZM45.3221 42.263C44.0049 42.9341 42.9341 44.0049 42.263 45.3221L44.045 46.23C44.5243 45.2892 45.2892 44.5243 46.23 44.045L45.3221 42.263ZM51.8 64C50.9434 64 50.3611 63.9992 49.911 63.9624C49.4726 63.9266 49.2484 63.8617 49.092 63.782L48.184 65.564C48.6694 65.8113 49.1861 65.9099 49.7482 65.9558C50.2986 66.0008 50.9764 66 51.8 66V64ZM46 60.2C46 61.0236 45.9992 61.7014 46.0442 62.2518C46.0901 62.8139 46.1887 63.3306 46.436 63.816L48.218 62.908C48.1383 62.7516 48.0734 62.5274 48.0376 62.089C48.0008 61.6389 48 61.0566 48 60.2H46ZM49.092 63.782C48.7157 63.5903 48.4097 63.2843 48.218 62.908L46.436 63.816C46.8195 64.5686 47.4314 65.1805 48.184 65.564L49.092 63.782ZM64 60.2C64 61.0566 63.9992 61.6389 63.9624 62.089C63.9266 62.5274 63.8617 62.7516 63.782 62.908L65.564 63.816C65.8113 63.3306 65.9099 62.8139 65.9558 62.2518C66.0008 61.7014 66 61.0236 66 60.2H64ZM60.2 66C61.0236 66 61.7014 66.0008 62.2518 65.9558C62.8139 65.9099 63.3306 65.8113 63.816 65.564L62.908 63.782C62.7516 63.8617 62.5274 63.9266 62.089 63.9624C61.6389 63.9992 61.0566 64 60.2 64V66ZM63.782 62.908C63.5903 63.2843 63.2843 63.5903 62.908 63.782L63.816 65.564C64.5686 65.1805 65.1805 64.5686 65.564 63.816L63.782 62.908ZM60.2 48C61.0566 48 61.6389 48.0008 62.089 48.0376C62.5274 48.0734 62.7516 48.1383 62.908 48.218L63.816 46.436C63.3306 46.1887 62.8139 46.0901 62.2518 46.0442C61.7014 45.9992 61.0236 46 60.2 46V48ZM66 51.8C66 50.9764 66.0008 50.2986 65.9558 49.7482C65.9099 49.1861 65.8113 48.6694 65.564 48.184L63.782 49.092C63.8617 49.2484 63.9266 49.4726 63.9624 49.911C63.9992 50.3611 64 50.9434 64 51.8H66ZM62.908 48.218C63.2843 48.4097 63.5903 48.7157 63.782 49.092L65.564 48.184C65.1805 47.4314 64.5686 46.8195 63.816 46.436L62.908 48.218ZM51.8 46C50.9764 46 50.2986 45.9992 49.7482 46.0442C49.1861 46.0901 48.6694 46.1887 48.184 46.436L49.092 48.218C49.2484 48.1383 49.4726 48.0734 49.911 48.0376C50.3611 48.0008 50.9434 48 51.8 48V46ZM48 51.8C48 50.9434 48.0008 50.3611 48.0376 49.911C48.0734 49.4726 48.1383 49.2484 48.218 49.092L46.436 48.184C46.1887 48.6694 46.0901 49.1861 46.0442 49.7482C45.9992 50.2986 46 50.9764 46 51.8H48ZM48.184 46.436C47.4314 46.8195 46.8195 47.4314 46.436 48.184L48.218 49.092C48.4097 48.7157 48.7157 48.4097 49.092 48.218L48.184 46.436Z" fill="#C5C5C5"/>
</svg>
