<svg width="46" height="46" viewBox="0 0 46 46" fill="none" xmlns="http://www.w3.org/2000/svg">
<path d="M9.93607 39.4144L10.3901 38.5234L9.93607 39.4144ZM6.58562 36.0639L7.47662 35.6099L6.58562 36.0639ZM39.4144 36.0639L38.5234 35.6099L39.4144 36.0639ZM36.0639 39.4144L35.6099 38.5234L36.0639 39.4144ZM36.0639 6.58562L35.6099 7.47662L36.0639 6.58562ZM39.4144 9.93607L38.5234 10.3901L39.4144 9.93607ZM9.93607 6.58562L10.3901 7.47662L9.93607 6.58562ZM6.58562 9.93607L7.47662 10.3901L6.58562 9.93607ZM17.6333 35.5C18.1856 35.5 18.6333 35.0523 18.6333 34.5C18.6333 33.9477 18.1856 33.5 17.6333 33.5V35.5ZM13.593 34.0822L14.047 33.1912H14.047L13.593 34.0822ZM12.5 28.3667C12.5 27.8144 12.0523 27.3667 11.5 27.3667C10.9477 27.3667 10.5 27.8144 10.5 28.3667H12.5ZM11.9178 32.407L11.0268 32.861L11.9178 32.407ZM35.5 28.3667C35.5 27.8144 35.0523 27.3667 34.5 27.3667C33.9477 27.3667 33.5 27.8144 33.5 28.3667H35.5ZM34.0822 32.407L33.1912 31.953L34.0822 32.407ZM28.3667 33.5C27.8144 33.5 27.3667 33.9477 27.3667 34.5C27.3667 35.0523 27.8144 35.5 28.3667 35.5V33.5ZM32.407 34.0822L31.953 33.1912L32.407 34.0822ZM28.3667 10.5C27.8144 10.5 27.3667 10.9477 27.3667 11.5C27.3667 12.0523 27.8144 12.5 28.3667 12.5V10.5ZM32.407 11.9178L32.861 11.0268L32.407 11.9178ZM33.5 17.6333C33.5 18.1856 33.9477 18.6333 34.5 18.6333C35.0523 18.6333 35.5 18.1856 35.5 17.6333H33.5ZM34.0822 13.593L33.1912 14.047V14.047L34.0822 13.593ZM17.6333 12.5C18.1856 12.5 18.6333 12.0523 18.6333 11.5C18.6333 10.9477 18.1856 10.5 17.6333 10.5V12.5ZM13.593 11.9178L14.047 12.8088L13.593 11.9178ZM10.5 17.6333C10.5 18.1856 10.9477 18.6333 11.5 18.6333C12.0523 18.6333 12.5 18.1856 12.5 17.6333H10.5ZM11.9178 13.593L12.8088 14.047L11.9178 13.593ZM26.6939 21.85C26.6939 23.8193 25.0592 25.45 23 25.45V27.45C26.1255 27.45 28.6939 24.9617 28.6939 21.85H26.6939ZM23 25.45C20.9408 25.45 19.3061 23.8193 19.3061 21.85H17.3061C17.3061 24.9617 19.8745 27.45 23 27.45V25.45ZM19.3061 21.85C19.3061 19.8807 20.9408 18.25 23 18.25V16.25C19.8745 16.25 17.3061 18.7383 17.3061 21.85H19.3061ZM23 18.25C25.0592 18.25 26.6939 19.8807 26.6939 21.85H28.6939C28.6939 18.7383 26.1255 16.25 23 16.25V18.25ZM16.3125 32.7862C16.9404 29.7551 19.6851 27.45 23 27.45V25.45C18.7454 25.45 15.176 28.4127 14.3541 32.3805L16.3125 32.7862ZM23 27.45C26.3149 27.45 29.0596 29.7551 29.6875 32.7862L31.6459 32.3805C30.824 28.4127 27.2546 25.45 23 25.45V27.45ZM18.0167 6.75H27.9833V4.75H18.0167V6.75ZM39.25 18.0167V27.9833H41.25V18.0167H39.25ZM27.9833 39.25H18.0167V41.25H27.9833V39.25ZM6.75 27.9833V18.0167H4.75V27.9833H6.75ZM18.0167 39.25C15.8533 39.25 14.2909 39.2492 13.0626 39.1489C11.8461 39.0495 11.0456 38.8574 10.3901 38.5234L9.48208 40.3054C10.4665 40.807 11.5595 41.0327 12.8998 41.1422C14.2284 41.2508 15.8863 41.25 18.0167 41.25V39.25ZM4.75 27.9833C4.75 30.1137 4.74922 31.7716 4.85777 33.1002C4.96728 34.4405 5.193 35.5335 5.69461 36.5179L7.47662 35.6099C7.14262 34.9544 6.95053 34.1539 6.85113 32.9374C6.75078 31.7091 6.75 30.1467 6.75 27.9833H4.75ZM10.3901 38.5234C9.13565 37.8842 8.11578 36.8643 7.47662 35.6099L5.69461 36.5179C6.52551 38.1487 7.85134 39.4745 9.48208 40.3054L10.3901 38.5234ZM39.25 27.9833C39.25 30.1467 39.2492 31.7091 39.1489 32.9374C39.0495 34.1539 38.8574 34.9544 38.5234 35.6099L40.3054 36.5179C40.807 35.5335 41.0327 34.4405 41.1422 33.1002C41.2508 31.7716 41.25 30.1137 41.25 27.9833H39.25ZM27.9833 41.25C30.1137 41.25 31.7716 41.2508 33.1002 41.1422C34.4405 41.0327 35.5335 40.807 36.5179 40.3054L35.6099 38.5234C34.9544 38.8574 34.1539 39.0495 32.9374 39.1489C31.7091 39.2492 30.1467 39.25 27.9833 39.25V41.25ZM38.5234 35.6099C37.8842 36.8643 36.8643 37.8842 35.6099 38.5234L36.5179 40.3054C38.1487 39.4745 39.4745 38.1487 40.3054 36.5179L38.5234 35.6099ZM27.9833 6.75C30.1467 6.75 31.7091 6.75078 32.9374 6.85113C34.1539 6.95053 34.9544 7.14262 35.6099 7.47662L36.5179 5.69461C35.5335 5.193 34.4405 4.96728 33.1002 4.85777C31.7716 4.74922 30.1137 4.75 27.9833 4.75V6.75ZM41.25 18.0167C41.25 15.8863 41.2508 14.2284 41.1422 12.8998C41.0327 11.5595 40.807 10.4665 40.3054 9.48208L38.5234 10.3901C38.8574 11.0456 39.0495 11.8461 39.1489 13.0626C39.2492 14.2909 39.25 15.8533 39.25 18.0167H41.25ZM35.6099 7.47662C36.8643 8.11578 37.8842 9.13565 38.5234 10.3901L40.3054 9.48208C39.4745 7.85134 38.1487 6.52551 36.5179 5.69461L35.6099 7.47662ZM18.0167 4.75C15.8863 4.75 14.2284 4.74922 12.8998 4.85777C11.5595 4.96728 10.4665 5.193 9.48208 5.69461L10.3901 7.47662C11.0456 7.14262 11.8461 6.95053 13.0626 6.85113C14.2909 6.75078 15.8533 6.75 18.0167 6.75V4.75ZM6.75 18.0167C6.75 15.8533 6.75078 14.2909 6.85113 13.0626C6.95053 11.8461 7.14262 11.0456 7.47662 10.3901L5.69461 9.48208C5.193 10.4665 4.96728 11.5595 4.85777 12.8998C4.74922 14.2284 4.75 15.8863 4.75 18.0167H6.75ZM9.48208 5.69461C7.85134 6.52551 6.52551 7.85134 5.69461 9.48208L7.47662 10.3901C8.11578 9.13565 9.13565 8.11578 10.3901 7.47662L9.48208 5.69461ZM17.6333 33.5C16.5434 33.5 15.7861 33.4992 15.197 33.4511C14.6197 33.4039 14.2926 33.3163 14.047 33.1912L13.139 34.9732C13.7135 35.2659 14.3331 35.3872 15.0342 35.4445C15.7236 35.5008 16.5764 35.5 17.6333 35.5V33.5ZM10.5 28.3667C10.5 29.4236 10.4992 30.2764 10.5555 30.9658C10.6128 31.6669 10.7341 32.2865 11.0268 32.861L12.8088 31.953C12.6837 31.7074 12.5961 31.3803 12.5489 30.803C12.5008 30.2139 12.5 29.4566 12.5 28.3667H10.5ZM14.047 33.1912C13.5139 32.9195 13.0805 32.4861 12.8088 31.953L11.0268 32.861C11.4902 33.7704 12.2296 34.5098 13.139 34.9732L14.047 33.1912ZM33.5 28.3667C33.5 29.4566 33.4992 30.2139 33.4511 30.803C33.4039 31.3803 33.3163 31.7074 33.1912 31.953L34.9732 32.861C35.2659 32.2865 35.3872 31.6669 35.4445 30.9658C35.5008 30.2764 35.5 29.4236 35.5 28.3667H33.5ZM28.3667 35.5C29.4236 35.5 30.2764 35.5008 30.9658 35.4445C31.6669 35.3872 32.2865 35.2659 32.861 34.9732L31.953 33.1912C31.7074 33.3163 31.3803 33.4039 30.803 33.4511C30.2139 33.4992 29.4566 33.5 28.3667 33.5V35.5ZM33.1912 31.953C32.9195 32.4861 32.4861 32.9195 31.953 33.1912L32.861 34.9732C33.7704 34.5098 34.5098 33.7704 34.9732 32.861L33.1912 31.953ZM28.3667 12.5C29.4566 12.5 30.2139 12.5008 30.803 12.5489C31.3803 12.5961 31.7074 12.6837 31.953 12.8088L32.861 11.0268C32.2865 10.7341 31.6669 10.6128 30.9658 10.5555C30.2764 10.4992 29.4236 10.5 28.3667 10.5V12.5ZM35.5 17.6333C35.5 16.5764 35.5008 15.7236 35.4445 15.0342C35.3872 14.3331 35.2659 13.7135 34.9732 13.139L33.1912 14.047C33.3163 14.2926 33.4039 14.6197 33.4511 15.197C33.4992 15.7861 33.5 16.5434 33.5 17.6333H35.5ZM31.953 12.8088C32.4861 13.0805 32.9195 13.5139 33.1912 14.047L34.9732 13.139C34.5098 12.2296 33.7704 11.4902 32.861 11.0268L31.953 12.8088ZM17.6333 10.5C16.5764 10.5 15.7236 10.4992 15.0342 10.5555C14.3331 10.6128 13.7135 10.7341 13.139 11.0268L14.047 12.8088C14.2926 12.6837 14.6197 12.5961 15.197 12.5489C15.7861 12.5008 16.5434 12.5 17.6333 12.5V10.5ZM12.5 17.6333C12.5 16.5434 12.5008 15.7861 12.5489 15.197C12.5961 14.6197 12.6837 14.2926 12.8088 14.047L11.0268 13.139C10.7341 13.7135 10.6128 14.3331 10.5555 15.0342C10.4992 15.7236 10.5 16.5764 10.5 17.6333H12.5ZM13.139 11.0268C12.2296 11.4902 11.4902 12.2296 11.0268 13.139L12.8088 14.047C13.0805 13.5139 13.5139 13.0805 14.047 12.8088L13.139 11.0268Z" fill="#1C1C1C"/>
</svg>
