<svg width="30" height="30" viewBox="0 0 30 30" fill="none" xmlns="http://www.w3.org/2000/svg">
<path d="M17.5693 17.5694H17.986M17.5693 17.9861H17.986M17.5693 24.2361H17.986M17.5693 24.6527H17.986M20.9026 20.9027H21.3193M20.9026 21.3194H21.3193M24.236 17.5694H24.6526M24.236 17.9861H24.6526M24.236 24.2361H24.6526M24.236 24.6527H24.6526M7.22222 12.7778H10.5556C11.7829 12.7778 12.7778 11.7829 12.7778 10.5556V7.22222C12.7778 5.99492 11.7829 5 10.5556 5H7.22222C5.99492 5 5 5.99492 5 7.22222V10.5556C5 11.7829 5.99492 12.7778 7.22222 12.7778ZM7.22222 25H10.5556C11.7829 25 12.7778 24.0051 12.7778 22.7778V19.4444C12.7778 18.2171 11.7829 17.2222 10.5556 17.2222H7.22222C5.99492 17.2222 5 18.2171 5 19.4444V22.7778C5 24.0051 5.99492 25 7.22222 25ZM19.4444 12.7778H22.7778C24.0051 12.7778 25 11.7829 25 10.5556V7.22222C25 5.99492 24.0051 5 22.7778 5H19.4444C18.2171 5 17.2222 5.99492 17.2222 7.22222V10.5556C17.2222 11.7829 18.2171 12.7778 19.4444 12.7778ZM18.3333 17.7778C18.3333 18.0846 18.0846 18.3333 17.7778 18.3333C17.471 18.3333 17.2222 18.0846 17.2222 17.7778C17.2222 17.471 17.471 17.2222 17.7778 17.2222C18.0846 17.2222 18.3333 17.471 18.3333 17.7778ZM18.3333 24.4444C18.3333 24.7513 18.0846 25 17.7778 25C17.471 25 17.2222 24.7513 17.2222 24.4444C17.2222 24.1376 17.471 23.8889 17.7778 23.8889C18.0846 23.8889 18.3333 24.1376 18.3333 24.4444ZM21.6667 21.1111C21.6667 21.4179 21.4179 21.6667 21.1111 21.6667C20.8043 21.6667 20.5556 21.4179 20.5556 21.1111C20.5556 20.8043 20.8043 20.5556 21.1111 20.5556C21.4179 20.5556 21.6667 20.8043 21.6667 21.1111ZM25 17.7778C25 18.0846 24.7513 18.3333 24.4444 18.3333C24.1376 18.3333 23.8889 18.0846 23.8889 17.7778C23.8889 17.471 24.1376 17.2222 24.4444 17.2222C24.7513 17.2222 25 17.471 25 17.7778ZM25 24.4444C25 24.7513 24.7513 25 24.4444 25C24.1376 25 23.8889 24.7513 23.8889 24.4444C23.8889 24.1376 24.1376 23.8889 24.4444 23.8889C24.7513 23.8889 25 24.1376 25 24.4444Z" stroke="#1C1C1C" stroke-width="2" stroke-linecap="round"/>
</svg>
