<svg width="30" height="30" viewBox="0 0 30 30" fill="none" xmlns="http://www.w3.org/2000/svg">
<path d="M6.48005 25.705L6.93404 24.814L6.48005 25.705ZM4.29497 23.52L5.18597 23.066L4.29497 23.52ZM25.705 23.52L24.814 23.066L25.705 23.52ZM23.52 25.705L23.066 24.814L23.52 25.705ZM23.52 4.29497L23.066 5.18597L23.52 4.29497ZM25.705 6.48005L24.814 6.93404L25.705 6.48005ZM6.48005 4.29497L6.93404 5.18597L6.48005 4.29497ZM4.29497 6.48005L5.18597 6.93404L4.29497 6.48005ZM11.5 23.5C12.0523 23.5 12.5 23.0523 12.5 22.5C12.5 21.9477 12.0523 21.5 11.5 21.5V23.5ZM8.86502 22.2275L9.31901 21.3365H9.31901L8.86502 22.2275ZM8.5 18.5C8.5 17.9477 8.05228 17.5 7.5 17.5C6.94772 17.5 6.5 17.9477 6.5 18.5H8.5ZM7.77248 21.135L6.88148 21.589L7.77248 21.135ZM23.5 18.5C23.5 17.9477 23.0523 17.5 22.5 17.5C21.9477 17.5 21.5 17.9477 21.5 18.5H23.5ZM22.2275 21.135L21.3365 20.681L22.2275 21.135ZM18.5 21.5C17.9477 21.5 17.5 21.9477 17.5 22.5C17.5 23.0523 17.9477 23.5 18.5 23.5V21.5ZM21.135 22.2275L20.681 21.3365L21.135 22.2275ZM18.5 6.5C17.9477 6.5 17.5 6.94772 17.5 7.5C17.5 8.05228 17.9477 8.5 18.5 8.5V6.5ZM21.135 7.77248L21.589 6.88148L21.135 7.77248ZM21.5 11.5C21.5 12.0523 21.9477 12.5 22.5 12.5C23.0523 12.5 23.5 12.0523 23.5 11.5H21.5ZM22.2275 8.86502L21.3365 9.31901V9.31901L22.2275 8.86502ZM11.5 8.5C12.0523 8.5 12.5 8.05228 12.5 7.5C12.5 6.94772 12.0523 6.5 11.5 6.5V8.5ZM8.86502 7.77248L9.31901 8.66349L8.86502 7.77248ZM6.5 11.5C6.5 12.0523 6.94772 12.5 7.5 12.5C8.05228 12.5 8.5 12.0523 8.5 11.5H6.5ZM7.77248 8.86502L8.66349 9.31901L7.77248 8.86502ZM17.0612 14.25C17.0612 15.3356 16.1575 16.25 15 16.25V18.25C17.2238 18.25 19.0612 16.4781 19.0612 14.25H17.0612ZM15 16.25C13.8425 16.25 12.9388 15.3356 12.9388 14.25H10.9388C10.9388 16.4781 12.7762 18.25 15 18.25V16.25ZM12.9388 14.25C12.9388 13.1644 13.8425 12.25 15 12.25V10.25C12.7762 10.25 10.9388 12.0219 10.9388 14.25H12.9388ZM15 12.25C16.1575 12.25 17.0612 13.1644 17.0612 14.25H19.0612C19.0612 12.0219 17.2238 10.25 15 10.25V12.25ZM10.9792 21.4528C11.3549 19.639 13.0015 18.25 15 18.25V16.25C12.0618 16.25 9.59053 18.2965 9.02079 21.0472L10.9792 21.4528ZM15 18.25C16.9985 18.25 18.6451 19.639 19.0208 21.4528L20.9792 21.0472C20.4095 18.2965 17.9382 16.25 15 16.25V18.25ZM11.75 4.75H18.25V2.75H11.75V4.75ZM25.25 11.75V18.25H27.25V11.75H25.25ZM18.25 25.25H11.75V27.25H18.25V25.25ZM4.75 18.25V11.75H2.75V18.25H4.75ZM11.75 25.25C10.3334 25.25 9.33104 25.2492 8.54744 25.1852C7.77552 25.1221 7.30435 25.0027 6.93404 24.814L6.02606 26.596C6.7253 26.9523 7.48898 27.1054 8.38458 27.1786C9.26851 27.2508 10.3664 27.25 11.75 27.25V25.25ZM2.75 18.25C2.75 19.6336 2.74922 20.7315 2.82144 21.6154C2.89462 22.511 3.04768 23.2747 3.40396 23.9739L5.18597 23.066C4.99729 22.6957 4.87787 22.2245 4.8148 21.4526C4.75078 20.669 4.75 19.6666 4.75 18.25H2.75ZM6.93404 24.814C6.18139 24.4305 5.56947 23.8186 5.18597 23.066L3.40396 23.9739C3.9792 25.1029 4.89708 26.0208 6.02606 26.596L6.93404 24.814ZM25.25 18.25C25.25 19.6666 25.2492 20.669 25.1852 21.4526C25.1221 22.2245 25.0027 22.6957 24.814 23.066L26.596 23.9739C26.9523 23.2747 27.1054 22.511 27.1786 21.6154C27.2508 20.7315 27.25 19.6336 27.25 18.25H25.25ZM18.25 27.25C19.6336 27.25 20.7315 27.2508 21.6154 27.1786C22.511 27.1054 23.2747 26.9523 23.9739 26.596L23.066 24.814C22.6957 25.0027 22.2245 25.1221 21.4526 25.1852C20.669 25.2492 19.6666 25.25 18.25 25.25V27.25ZM24.814 23.066C24.4305 23.8186 23.8186 24.4305 23.066 24.814L23.9739 26.596C25.1029 26.0208 26.0208 25.1029 26.596 23.9739L24.814 23.066ZM18.25 4.75C19.6666 4.75 20.669 4.75078 21.4526 4.8148C22.2245 4.87787 22.6957 4.99729 23.066 5.18597L23.9739 3.40396C23.2747 3.04768 22.511 2.89462 21.6154 2.82144C20.7315 2.74922 19.6336 2.75 18.25 2.75V4.75ZM27.25 11.75C27.25 10.3664 27.2508 9.26851 27.1786 8.38458C27.1054 7.48898 26.9523 6.7253 26.596 6.02606L24.814 6.93404C25.0027 7.30435 25.1221 7.77552 25.1852 8.54744C25.2492 9.33104 25.25 10.3334 25.25 11.75H27.25ZM23.066 5.18597C23.8186 5.56947 24.4305 6.18139 24.814 6.93404L26.596 6.02606C26.0208 4.89708 25.1029 3.9792 23.9739 3.40396L23.066 5.18597ZM11.75 2.75C10.3664 2.75 9.26851 2.74922 8.38458 2.82144C7.48898 2.89462 6.7253 3.04768 6.02606 3.40396L6.93404 5.18597C7.30435 4.99729 7.77552 4.87787 8.54744 4.8148C9.33104 4.75078 10.3334 4.75 11.75 4.75V2.75ZM4.75 11.75C4.75 10.3334 4.75078 9.33104 4.8148 8.54744C4.87787 7.77552 4.99729 7.30435 5.18597 6.93404L3.40396 6.02606C3.04768 6.7253 2.89462 7.48898 2.82144 8.38458C2.74922 9.26851 2.75 10.3664 2.75 11.75H4.75ZM6.02606 3.40396C4.89708 3.9792 3.9792 4.89708 3.40396 6.02606L5.18597 6.93404C5.56947 6.18139 6.18139 5.56947 6.93404 5.18597L6.02606 3.40396ZM11.5 21.5C10.7834 21.5 10.3061 21.4992 9.93944 21.4693C9.5844 21.4403 9.42194 21.389 9.31901 21.3365L8.41103 23.1185C8.84289 23.3386 9.29785 23.4235 9.77657 23.4626C10.2436 23.5008 10.8164 23.5 11.5 23.5V21.5ZM6.5 18.5C6.5 19.1836 6.49922 19.7564 6.53738 20.2234C6.57649 20.7021 6.66143 21.1571 6.88148 21.589L8.66349 20.681C8.61105 20.5781 8.55975 20.4156 8.53074 20.0606C8.50078 19.6938 8.5 19.2166 8.5 18.5H6.5ZM9.31901 21.3365C9.03677 21.1927 8.8073 20.9632 8.66349 20.681L6.88148 21.589C7.21703 22.2475 7.75247 22.783 8.41103 23.1185L9.31901 21.3365ZM21.5 18.5C21.5 19.2166 21.4992 19.6938 21.4693 20.0606C21.4403 20.4156 21.389 20.5781 21.3365 20.681L23.1185 21.589C23.3386 21.1571 23.4235 20.7021 23.4626 20.2234C23.5008 19.7564 23.5 19.1836 23.5 18.5H21.5ZM18.5 23.5C19.1836 23.5 19.7564 23.5008 20.2234 23.4626C20.7021 23.4235 21.1571 23.3386 21.589 23.1185L20.681 21.3365C20.5781 21.389 20.4156 21.4403 20.0606 21.4693C19.6938 21.4992 19.2166 21.5 18.5 21.5V23.5ZM21.3365 20.681C21.1927 20.9632 20.9632 21.1927 20.681 21.3365L21.589 23.1185C22.2475 22.783 22.783 22.2475 23.1185 21.589L21.3365 20.681ZM18.5 8.5C19.2166 8.5 19.6938 8.50078 20.0606 8.53074C20.4156 8.55975 20.5781 8.61105 20.681 8.66349L21.589 6.88148C21.1571 6.66143 20.7021 6.57649 20.2234 6.53738C19.7564 6.49922 19.1836 6.5 18.5 6.5V8.5ZM23.5 11.5C23.5 10.8164 23.5008 10.2436 23.4626 9.77657C23.4235 9.29785 23.3386 8.84289 23.1185 8.41103L21.3365 9.31901C21.389 9.42194 21.4403 9.5844 21.4693 9.93944C21.4992 10.3062 21.5 10.7834 21.5 11.5H23.5ZM20.681 8.66349C20.9632 8.8073 21.1927 9.03677 21.3365 9.31901L23.1185 8.41103C22.783 7.75247 22.2475 7.21703 21.589 6.88148L20.681 8.66349ZM11.5 6.5C10.8164 6.5 10.2436 6.49922 9.77657 6.53738C9.29785 6.57649 8.84289 6.66143 8.41103 6.88148L9.31901 8.66349C9.42194 8.61105 9.5844 8.55975 9.93944 8.53074C10.3062 8.50078 10.7834 8.5 11.5 8.5V6.5ZM8.5 11.5C8.5 10.7834 8.50078 10.3061 8.53074 9.93944C8.55975 9.5844 8.61105 9.42194 8.66349 9.31901L6.88148 8.41103C6.66143 8.84289 6.57649 9.29785 6.53738 9.77657C6.49922 10.2436 6.5 10.8164 6.5 11.5H8.5ZM8.41103 6.88148C7.75247 7.21703 7.21703 7.75247 6.88148 8.41103L8.66349 9.31901C8.8073 9.03677 9.03677 8.8073 9.31901 8.66349L8.41103 6.88148Z" fill="#1C1C1C"/>
</svg>
